<?xml version="1.0" encoding="UTF-8"?>
<!-- Generated by Pixelmator Pro 3.6.9 -->
<svg width="3300" height="2200" viewBox="0 0 3300 2200" xmlns="http://www.w3.org/2000/svg">
    <g id="Notes">
        <path id="artboard" fill="#ffffff" stroke="none" d="M 99 -16 L 3399 -16 L 3399 2184 L 99 2184 Z"/>
        <path id="Path" fill="none" stroke="#000000" stroke-width="0.5" d="M 362 276 L 3135 276"/>
        <text id="WeightScale-Variations" xml:space="preserve" x="361" y="308" font-family="Helvetica" font-size="13" font-weight="700" fill="#000000">Weight/Scale Variations</text>
        <text id="Ultralight" xml:space="preserve" x="631.352295" y="308" font-family="Helvetica" font-size="13" fill="#000000">Ultralight</text>
        <text id="Thin" xml:space="preserve" x="940.355469" y="308" font-family="Helvetica" font-size="13" fill="#000000">Thin</text>
        <text id="Light" xml:space="preserve" x="1236.905029" y="308" font-family="Helvetica" font-size="13" fill="#000000">Light</text>
        <text id="Regular" xml:space="preserve" x="1524.237305" y="308" font-family="Helvetica" font-size="13" fill="#000000">Regular</text>
        <text id="Medium" xml:space="preserve" x="1820.881836" y="308" font-family="Helvetica" font-size="13" fill="#000000">Medium</text>
        <text id="Semibold" xml:space="preserve" x="2113.901855" y="308" font-family="Helvetica" font-size="13" fill="#000000">Semibold</text>
        <text id="Bold" xml:space="preserve" x="2423.990479" y="308" font-family="Helvetica" font-size="13" fill="#000000">Bold</text>
        <text id="Heavy" xml:space="preserve" x="2715.575928" y="308" font-family="Helvetica" font-size="13" fill="#000000">Heavy</text>
        <text id="Black" xml:space="preserve" x="3014.105469" y="308" font-family="Helvetica" font-size="13" fill="#000000">Black</text>
        <path id="path1" fill="none" stroke="#000000" stroke-width="0.5" d="M 362 1887 L 3135 1887"/>
        <g id="Group">
            <path id="path2" fill="#000000" stroke="none" d="M 371.248047 1917.830078 C 375.603516 1917.830078 379.138672 1914.304688 379.138672 1909.949219 C 379.138672 1905.59375 375.603516 1902.068359 371.248047 1902.068359 C 366.902344 1902.068359 363.367188 1905.59375 363.367188 1909.949219 C 363.367188 1914.304688 366.902344 1917.830078 371.248047 1917.830078 Z M 371.248047 1916.345703 C 367.712891 1916.345703 364.861328 1913.484375 364.861328 1909.949219 C 364.861328 1906.414063 367.712891 1903.552734 371.248047 1903.552734 C 374.783203 1903.552734 377.644531 1906.414063 377.644531 1909.949219 C 377.644531 1913.484375 374.783203 1916.345703 371.248047 1916.345703 Z M 367.654266 1909.949219 C 367.654266 1910.378906 367.957001 1910.671875 368.406219 1910.671875 L 370.505829 1910.671875 L 370.505829 1912.791016 C 370.505829 1913.230469 370.798798 1913.533203 371.228485 1913.533203 C 371.677704 1913.533203 371.970673 1913.230469 371.970673 1912.791016 L 371.970673 1910.671875 L 374.089813 1910.671875 C 374.529266 1910.671875 374.832001 1910.378906 374.832001 1909.949219 C 374.832001 1909.509766 374.529266 1909.207031 374.089813 1909.207031 L 371.970673 1909.207031 L 371.970673 1907.097656 C 371.970673 1906.648438 371.677704 1906.345703 371.228485 1906.345703 C 370.798798 1906.345703 370.505829 1906.648438 370.505829 1907.097656 L 370.505829 1909.207031 L 368.406219 1909.207031 C 367.957031 1909.207031 367.654266 1909.509766 367.654266 1909.949219 Z"/>
        </g>
        <g id="g1">
            <path id="path3" fill="#000000" stroke="none" d="M 392.214966 1919.910156 C 397.713013 1919.910156 402.175934 1915.447266 402.175934 1909.949219 C 402.175934 1904.451172 397.713013 1899.988281 392.214966 1899.988281 C 386.716949 1899.988281 382.254028 1904.451172 382.254028 1909.949219 C 382.254028 1915.447266 386.716949 1919.910156 392.214966 1919.910156 Z M 392.214966 1918.25 C 387.625153 1918.25 383.914215 1914.539063 383.914215 1909.949219 C 383.914215 1905.359375 387.625153 1901.648438 392.214966 1901.648438 C 396.80481 1901.648438 400.515747 1905.359375 400.515747 1909.949219 C 400.515747 1914.539063 396.80481 1918.25 392.214966 1918.25 Z M 387.683746 1909.949219 C 387.683746 1910.427734 388.015778 1910.75 388.513824 1910.75 L 391.384918 1910.75 L 391.384918 1913.630859 C 391.384918 1914.119141 391.716949 1914.460938 392.195465 1914.460938 C 392.683746 1914.460938 393.025543 1914.128906 393.025543 1913.630859 L 393.025543 1910.75 L 395.906403 1910.75 C 396.394684 1910.75 396.736481 1910.427734 396.736481 1909.949219 C 396.736481 1909.460938 396.394684 1909.119141 395.906403 1909.119141 L 393.025543 1909.119141 L 393.025543 1906.248047 C 393.025543 1905.75 392.683746 1905.408203 392.195465 1905.408203 C 391.716949 1905.408203 391.384918 1905.75 391.384918 1906.248047 L 391.384918 1909.119141 L 388.513824 1909.119141 C 388.015778 1909.119141 387.683746 1909.460938 387.683746 1909.949219 Z"/>
        </g>
        <g id="g2">
            <path id="path4" fill="#000000" stroke="none" d="M 418.894714 1922.664063 C 425.916168 1922.664063 431.619293 1916.970703 431.619293 1909.949219 C 431.619293 1902.927734 425.916168 1897.224609 418.894714 1897.224609 C 411.87323 1897.224609 406.179871 1902.927734 406.179871 1909.949219 C 406.179871 1916.970703 411.87323 1922.664063 418.894714 1922.664063 Z M 418.894714 1920.847656 C 412.869293 1920.847656 407.996246 1915.974609 407.996246 1909.949219 C 407.996246 1903.923828 412.869293 1899.050781 418.894714 1899.050781 C 424.920105 1899.050781 429.793152 1903.923828 429.793152 1909.949219 C 429.793152 1915.974609 424.920105 1920.847656 418.894714 1920.847656 Z M 413.12323 1909.949219 C 413.12323 1910.466797 413.494324 1910.828125 414.041199 1910.828125 L 417.986511 1910.828125 L 417.986511 1914.783203 C 417.986511 1915.320313 418.357605 1915.701172 418.875183 1915.701172 C 419.412292 1915.701172 419.783386 1915.330078 419.783386 1914.783203 L 419.783386 1910.828125 L 423.738464 1910.828125 C 424.275574 1910.828125 424.656433 1910.466797 424.656433 1909.949219 C 424.656433 1909.402344 424.285339 1909.03125 423.738464 1909.03125 L 419.783386 1909.03125 L 419.783386 1905.085938 C 419.783386 1904.539063 419.412292 1904.158203 418.875183 1904.158203 C 418.357605 1904.158203 417.986511 1904.539063 417.986511 1905.085938 L 417.986511 1909.03125 L 414.041199 1909.03125 C 413.494324 1909.03125 413.12323 1909.402344 413.12323 1909.949219 Z"/>
        </g>
        <text id="Design-Variations" xml:space="preserve" x="361" y="1939" font-family="Helvetica" font-size="13" font-weight="700" fill="#000000">Design Variations</text>
        <text id="Symbols-are-supported-in" xml:space="preserve" x="361" y="1957" font-family="Helvetica" font-size="13" fill="#000000">Symbols are supported in up to nine weights and three scales.</text>
        <text id="For-optimal-layout-with" xml:space="preserve" x="361" y="1975" font-family="Helvetica" font-size="13" fill="#000000">For optimal layout with text and other symbols, vertically align</text>
        <text id="symbols-with-the-adjacent" xml:space="preserve" x="361" y="1993" font-family="Helvetica" font-size="13" fill="#000000">symbols with the adjacent text.</text>
        <path id="path5" fill="none" stroke="#00aeef" stroke-width="0.5" d="M 875 1903 L 875 1917"/>
        <g id="g3">
            <path id="path6" fill="#000000" stroke="none" d="M 878.310547 1917.15625 C 878.828125 1917.15625 879.082031 1916.960938 879.267578 1916.414063 L 880.527344 1912.966797 L 886.289063 1912.966797 L 887.548828 1916.414063 C 887.734375 1916.960938 887.988281 1917.15625 888.496094 1917.15625 C 889.013672 1917.15625 889.345703 1916.84375 889.345703 1916.355469 C 889.345703 1916.189453 889.316406 1916.033203 889.238281 1915.828125 L 884.658203 1903.630859 C 884.433594 1903.035156 884.033203 1902.732422 883.408203 1902.732422 C 882.802734 1902.732422 882.392578 1903.025391 882.177734 1903.621094 L 877.597656 1915.837891 C 877.519531 1916.042969 877.490234 1916.199219 877.490234 1916.365234 C 877.490234 1916.853516 877.802734 1917.15625 878.310547 1917.15625 Z M 881.005859 1911.482422 L 883.378906 1904.910156 L 883.427734 1904.910156 L 885.800781 1911.482422 Z"/>
        </g>
        <path id="path7" fill="none" stroke="#00aeef" stroke-width="0.5" d="M 891.835999 1903 L 891.835999 1917"/>
        <text id="Margins" xml:space="preserve" x="874" y="1939" font-family="Helvetica" font-size="13" font-weight="700" fill="#000000">Margins</text>
        <text id="Leading-and-trailing-margins" xml:space="preserve" x="874" y="1957" font-family="Helvetica" font-size="13" fill="#000000">Leading and trailing margins on the left and right side of each symbol</text>
        <text id="can-be-adjusted-by" xml:space="preserve" x="874" y="1975" font-family="Helvetica" font-size="13" fill="#000000">can be adjusted by modifying the x-location of the margin guidelines.</text>
        <text id="Modifications-are-automatically-applied" xml:space="preserve" x="874" y="1993" font-family="Helvetica" font-size="13" fill="#000000">Modifications are automatically applied proportionally to all</text>
        <text id="scales-and-weights" xml:space="preserve" x="874" y="2011" font-family="Helvetica" font-size="13" fill="#000000">scales and weights.</text>
        <g id="g4">
            <path id="path8" fill="#000000" stroke="none" d="M 1390.841797 1918.865234 L 1392.541016 1920.574219 C 1393.400391 1921.443359 1394.386719 1921.384766 1395.314453 1920.359375 L 1406.007813 1908.572266 L 1405.041016 1907.595703 L 1394.425781 1919.275391 C 1394.074219 1919.675781 1393.742188 1919.773438 1393.273438 1919.304688 L 1392.101563 1918.142578 C 1391.632813 1917.683594 1391.740234 1917.341797 1392.140625 1916.980469 L 1403.615234 1906.179688 L 1402.638672 1905.212891 L 1391.046875 1916.101563 C 1390.060547 1917.019531 1389.982422 1917.996094 1390.841797 1918.865234 Z M 1397.257813 1900.671875 C 1396.837891 1901.082031 1396.808594 1901.658203 1397.042969 1902.048828 C 1397.277344 1902.410156 1397.736328 1902.644531 1398.380859 1902.478516 C 1399.845703 1902.136719 1401.369141 1902.078125 1402.794922 1903.015625 L 1402.208984 1904.470703 C 1401.867188 1905.300781 1402.042969 1905.886719 1402.580078 1906.433594 L 1404.875 1908.748047 C 1405.363281 1909.236328 1405.773438 1909.255859 1406.339844 1909.158203 L 1407.404297 1908.962891 L 1408.068359 1909.636719 L 1408.029297 1910.193359 C 1407.990234 1910.691406 1408.117188 1911.072266 1408.605469 1911.550781 L 1409.367188 1912.292969 C 1409.845703 1912.771484 1410.460938 1912.800781 1410.929688 1912.332031 L 1413.839844 1909.412109 C 1414.308594 1908.943359 1414.289063 1908.347656 1413.810547 1907.869141 L 1413.039063 1907.107422 C 1412.560547 1906.628906 1412.189453 1906.472656 1411.710938 1906.511719 L 1411.134766 1906.560547 L 1410.490234 1905.925781 L 1410.734375 1904.802734 C 1410.861328 1904.236328 1410.705078 1903.796875 1410.119141 1903.210938 L 1407.921875 1901.023438 C 1404.582031 1897.703125 1400.148438 1897.78125 1397.257813 1900.671875 Z M 1398.751953 1901.042969 C 1401.183594 1899.265625 1404.474609 1899.568359 1406.701172 1901.794922 L 1409.132813 1904.207031 C 1409.367188 1904.441406 1409.40625 1904.626953 1409.337891 1904.96875 L 1409.015625 1906.453125 L 1410.519531 1907.9375 L 1411.505859 1907.878906 C 1411.759766 1907.869141 1411.837891 1907.888672 1412.033203 1908.083984 L 1412.609375 1908.660156 L 1410.167969 1911.101563 L 1409.591797 1910.525391 C 1409.396484 1910.330078 1409.367188 1910.251953 1409.376953 1909.988281 L 1409.445313 1909.011719 L 1407.951172 1907.527344 L 1406.427734 1907.78125 C 1406.105469 1907.849609 1405.958984 1907.820313 1405.714844 1907.585938 L 1403.712891 1905.583984 C 1403.458984 1905.349609 1403.429688 1905.183594 1403.585938 1904.8125 L 1404.464844 1902.722656 C 1402.902344 1901.267578 1400.871094 1900.642578 1398.839844 1901.238281 C 1398.683594 1901.277344 1398.625 1901.150391 1398.751953 1901.042969 Z"/>
        </g>
        <text id="Exporting" xml:space="preserve" x="1387" y="1939" font-family="Helvetica" font-size="13" font-weight="700" fill="#000000">Exporting</text>
        <text id="Symbols-should-be-outlined" xml:space="preserve" x="1387" y="1957" font-family="Helvetica" font-size="13" fill="#000000">Symbols should be outlined when exporting to ensure the</text>
        <text id="design-is-preserved-when" xml:space="preserve" x="1387" y="1975" font-family="Helvetica" font-size="13" fill="#000000">design is preserved when submitting to Xcode.</text>
        <text id="template-version" xml:space="preserve" x="3048.414063" y="1919" font-family="Helvetica" font-size="13" fill="#000000">Template v.6.0</text>
        <text id="Requires-Xcode-16-or" xml:space="preserve" x="2961.45752" y="1937" font-family="Helvetica" font-size="13" fill="#000000">Requires Xcode 16 or greater</text>
        <text id="Generated-from-customhandpointupleft" xml:space="preserve" x="2892.083984" y="1955" font-family="Helvetica" font-size="13" fill="#000000">Generated from custom.hand.point.up.left</text>
        <text id="Typeset-at-1000-points" xml:space="preserve" x="2997.569336" y="1973" font-family="Helvetica" font-size="13" fill="#000000">Typeset at 100.0 points</text>
        <text id="Small" xml:space="preserve" x="361" y="712" font-family="Helvetica" font-size="13" fill="#000000">Small</text>
        <text id="text1" xml:space="preserve" x="361" y="1142" font-family="Helvetica" font-size="13" fill="#000000">Medium</text>
        <text id="Large" xml:space="preserve" x="361" y="1572" font-family="Helvetica" font-size="13" fill="#000000">Large</text>
    </g>
    <g id="Guides">
        <g id="H-reference">
            <path id="path9" fill="#27aae1" stroke="none" d="M 339.993652 696 L 342.637756 696 L 368.328094 628.867676 L 369.030304 628.867676 L 369.030304 625.541016 L 367.122589 625.541016 Z M 350.688507 671.520142 L 385.981506 671.520142 L 385.231506 669.271484 L 351.438507 669.271484 Z M 394.119598 696 L 396.763702 696 L 369.638214 625.541016 L 368.432587 625.541016 L 368.432587 628.867676 Z"/>
        </g>
        <path id="Baseline-S" fill="none" stroke="#27aae1" stroke-width="0.5" d="M 263 696 L 3036 696"/>
        <path id="Capline-S" fill="none" stroke="#27aae1" stroke-width="0.5" d="M 263 625.541016 L 3036 625.541016"/>
        <g id="g5">
            <path id="path10" fill="#27aae1" stroke="none" d="M 339.993652 1126 L 342.637756 1126 L 368.328094 1058.867676 L 369.030304 1058.867676 L 369.030304 1055.541016 L 367.122589 1055.541016 Z M 350.688507 1101.520142 L 385.981506 1101.520142 L 385.231506 1099.271484 L 351.438507 1099.271484 Z M 394.119598 1126 L 396.763702 1126 L 369.638214 1055.541016 L 368.432587 1055.541016 L 368.432587 1058.867676 Z"/>
        </g>
        <path id="Baseline-M" fill="none" stroke="#27aae1" stroke-width="0.5" d="M 263 1126 L 3036 1126"/>
        <path id="Capline-M" fill="none" stroke="#27aae1" stroke-width="0.5" d="M 263 1055.540039 L 3036 1055.540039"/>
        <g id="g6">
            <path id="path11" fill="#27aae1" stroke="none" d="M 339.993652 1556 L 342.637756 1556 L 368.328094 1488.867676 L 369.030304 1488.867676 L 369.030304 1485.541016 L 367.122589 1485.541016 Z M 350.688507 1531.52002 L 385.981506 1531.52002 L 385.231506 1529.271484 L 351.438507 1529.271484 Z M 394.119598 1556 L 396.763702 1556 L 369.638214 1485.541016 L 368.432587 1485.541016 L 368.432587 1488.867676 Z"/>
        </g>
        <path id="Baseline-L" fill="none" stroke="#27aae1" stroke-width="0.5" d="M 263 1556 L 3036 1556"/>
        <path id="Capline-L" fill="none" stroke="#27aae1" stroke-width="0.5" d="M 263 1485.540039 L 3036 1485.540039"/>
        <path id="right-margin-Black-S" fill="none" stroke="#00aeef" stroke-width="0.5" d="M 2981.22998 600.784912 L 2981.22998 720.120972"/>
        <path id="left-margin-Black-S" fill="none" stroke="#00aeef" stroke-width="0.5" d="M 2885.570068 600.784912 L 2885.570068 720.120972"/>
        <path id="right-margin-Regular-S" fill="none" stroke="#00aeef" stroke-width="0.5" d="M 1490.73999 600.784912 L 1490.73999 720.120972"/>
        <path id="left-margin-Regular-S" fill="none" stroke="#00aeef" stroke-width="0.5" d="M 1408.949951 600.784912 L 1408.949951 720.120972"/>
        <path id="right-margin-Ultralight-S" fill="none" stroke="#00aeef" stroke-width="0.5" d="M 597.085022 600.784912 L 597.085022 720.120972"/>
        <path id="left-margin-Ultralight-S" fill="none" stroke="#00aeef" stroke-width="0.5" d="M 522.336975 600.784912 L 522.336975 720.120972"/>
    </g>
    <g id="Symbols">
        <g id="Black-S">
            <path id="path12" fill="none" stroke="#000000" stroke-width="0.5" d="M 2963.658691 693.506958 C 2977.979492 688.274414 2983.074219 676.983032 2977.704102 662.283447 L 2974.571289 653.608398 C 2972.092773 646.82666 2966.756836 643.69397 2960.766846 645.484131 C 2958.942383 643.831665 2956.2229 643.418579 2953.606445 644.348022 C 2953.124512 644.520142 2952.642578 644.726685 2952.229492 645.002197 C 2950.23291 643.212036 2947.857666 642.661255 2945.378906 643.590698 C 2945.344482 643.590698 2945.310059 643.590698 2945.275635 643.625122 L 2943.898682 639.838379 C 2942.143066 635.018921 2937.80542 632.884521 2933.192627 634.571411 C 2928.338623 636.327026 2926.273193 640.802246 2928.028809 645.621826 L 2933.468018 660.631104 C 2933.536865 660.803223 2933.502441 660.940918 2933.433594 660.975342 C 2933.364746 661.009766 2933.295898 660.975342 2933.227051 660.940918 L 2933.054932 660.837646 C 2931.264648 659.839355 2929.164795 659.70166 2927.064941 660.458984 C 2922.86499 661.973633 2921.006104 665.932495 2922.520752 670.098022 C 2923.002686 671.371704 2923.691162 672.610962 2924.551758 673.574951 L 2934.294189 685.141724 C 2942.315186 694.642944 2952.642578 697.569092 2963.658691 693.506958 Z M 2960.835693 685.141724 C 2953.227783 687.895752 2946.893555 685.658081 2940.938232 679.323853 L 2930.782715 668.445557 C 2930.679443 668.307861 2930.610596 668.239014 2930.541748 668.101318 C 2930.438477 667.791504 2930.541748 667.481689 2930.954834 667.30957 C 2931.161377 667.240723 2931.402344 667.30957 2931.574463 667.481689 L 2938.906982 673.988037 C 2940.14624 675.124023 2941.661133 675.261719 2942.934814 674.814209 C 2944.69043 674.160156 2945.929688 672.266724 2945.069092 669.925903 L 2935.154785 642.557983 C 2934.982666 642.144897 2935.154785 641.766235 2935.533447 641.62854 C 2935.912109 641.490845 2936.359619 641.662964 2936.497314 642.041626 L 2943.003662 659.942627 C 2943.623291 661.594971 2945.447754 662.455566 2947.100098 661.835938 C 2948.752686 661.250732 2949.613281 659.391846 2949.028076 657.73938 L 2946.893555 651.852661 C 2947.100098 651.783813 2947.341064 651.680542 2947.547852 651.611694 C 2947.926514 651.473999 2948.374023 651.646118 2948.511719 652.024902 L 2950.852539 658.46228 C 2951.437744 660.080322 2953.227783 660.906494 2954.845947 660.321289 C 2956.463867 659.736084 2957.290039 657.980347 2956.67041 656.362427 L 2955.293457 652.575684 C 2955.534424 652.472412 2955.775391 652.403564 2955.981934 652.334717 C 2956.326172 652.197021 2956.808105 652.334717 2956.945801 652.747803 L 2958.460449 656.878784 C 2959.080078 658.565552 2960.904541 659.42627 2962.591553 658.806519 C 2964.243896 658.221313 2965.104492 656.362427 2964.519287 654.675537 L 2964.175049 653.814941 C 2965.242188 653.401855 2965.89624 653.746094 2966.378174 655.123047 L 2969.820801 664.555542 C 2973.332031 674.229004 2970.061768 681.768066 2960.835693 685.141724 Z"/>
            <path id="Path-copy" fill="none" stroke="#000000" stroke-width="0.5" d="M 2904.840088 665.991211 C 2907.375488 665.991211 2909.040283 664.223999 2909.040283 661.53479 L 2909.040283 644.093018 L 2908.60498 634.744629 L 2906.325439 636.691162 L 2910.474609 641.941528 L 2915.033447 646.551758 C 2915.802002 647.345703 2916.723877 647.960327 2918.055664 647.960327 C 2920.283936 647.960327 2922 646.346802 2922 643.939331 C 2922 642.838013 2921.539063 641.787842 2920.693848 640.942749 L 2907.91333 628.162354 C 2907.196289 627.44519 2905.966797 626.984131 2904.840088 626.984131 C 2903.713135 626.984131 2902.483643 627.44519 2901.766602 628.162354 L 2889.011719 640.942749 C 2888.166504 641.787842 2887.705566 642.838013 2887.705566 643.939331 C 2887.705566 646.346802 2889.421631 647.960327 2891.649902 647.960327 C 2892.981689 647.960327 2893.903564 647.345703 2894.672119 646.551758 L 2899.205322 641.941528 L 2903.354492 636.691162 L 2901.074951 634.744629 L 2900.639648 644.093018 L 2900.639648 661.53479 C 2900.639648 664.223999 2902.304443 665.991211 2904.840088 665.991211 Z"/>
        </g>
        <g id="Regular-S">
            <path id="path13" fill="none" stroke="#000000" stroke-width="0.5" d="M 1477.056152 691.606812 C 1488.060181 687.608398 1492.502808 677.45874 1488.196899 665.60022 L 1486.112183 659.893188 C 1483.993408 654.083618 1479.858398 651.657227 1475.073975 653.331787 C 1473.80957 651.657227 1471.827515 651.110474 1469.708618 651.896484 C 1468.922607 652.1698 1468.273438 652.545776 1467.658203 653.02417 C 1466.223022 651.178833 1464.035767 650.529541 1461.780273 651.349609 C 1461.233521 651.554688 1460.720825 651.828125 1460.208252 652.1698 L 1457.235229 644.002197 C 1456.004883 640.687378 1453.031616 639.251953 1449.853516 640.379761 C 1446.641113 641.541626 1445.27417 644.58313 1446.436157 647.898071 L 1453.885986 668.300049 C 1453.920166 668.436768 1453.885986 668.539307 1453.749268 668.607666 C 1453.646851 668.641724 1453.578491 668.607666 1453.510132 668.505127 L 1450.981201 665.771118 C 1449.375 664.130737 1447.495483 663.618164 1445.615845 664.267456 C 1443.087036 665.190186 1441.412476 667.616577 1442.437622 670.487183 C 1442.71106 671.341553 1443.326172 672.332642 1443.941284 673.15271 L 1452.758301 683.780884 C 1459.832275 692.324463 1467.931641 694.921753 1477.056152 691.606812 Z M 1475.757446 687.574219 C 1468.751831 690.137329 1462.224609 689.077881 1455.799805 681.286255 L 1446.982788 670.72644 C 1446.709473 670.418823 1446.538696 670.145386 1446.401978 669.735352 C 1446.09436 668.915161 1446.401978 668.026611 1447.393066 667.684937 C 1448.178955 667.377319 1448.794067 667.684937 1449.375 668.334229 L 1455.628906 674.622314 C 1456.756714 675.818359 1457.747681 675.920898 1458.670532 675.579102 C 1459.798218 675.169067 1460.242432 674.00708 1459.798218 672.776855 L 1450.126831 646.25769 C 1449.785156 645.334961 1450.22937 644.412354 1451.186279 644.070557 C 1452.109009 643.728882 1453.031616 644.138916 1453.339355 645.095825 L 1460.276611 664.130737 C 1460.618408 665.087646 1461.746216 665.497803 1462.703003 665.121826 C 1463.659912 664.780151 1464.240845 663.754883 1463.864868 662.797974 L 1461.370239 656.031494 C 1461.712036 655.689819 1462.156128 655.348022 1462.668823 655.211304 C 1463.796631 654.80127 1464.75354 655.279663 1465.197632 656.47583 L 1467.419067 662.592896 C 1467.794922 663.549805 1468.88855 663.959961 1469.845337 663.618164 C 1470.802246 663.276489 1471.383179 662.2854 1471.007324 661.294312 L 1469.298584 656.544189 C 1469.606201 656.236572 1470.084595 655.928955 1470.528809 655.723999 C 1471.690796 655.313843 1472.681885 655.792358 1473.091919 656.988403 L 1474.595581 661.089233 C 1474.937256 662.080322 1476.065063 662.456299 1477.056152 662.114502 C 1477.97876 661.772827 1478.525635 660.747559 1478.183838 659.790649 L 1477.192749 657.022583 C 1479.209106 656.270752 1481.191284 658.081909 1482.592285 661.875244 L 1484.232788 666.48877 C 1487.923462 676.536011 1484.813721 684.293579 1475.757446 687.574219 Z"/>
            <path id="path14" fill="none" stroke="#000000" stroke-width="0.5" d="M 1426.592529 664 C 1427.810425 664 1428.691406 663.144897 1428.691406 661.927124 L 1428.691406 636.093506 L 1428.432251 629.719238 L 1427.084839 630.185669 L 1434.961914 638.917847 L 1438.667236 642.519531 C 1439.030029 642.882202 1439.574219 643.089478 1440.118286 643.089478 C 1441.284302 643.089478 1442.139404 642.182617 1442.139404 641.04248 C 1442.139404 640.498413 1441.932129 640.006104 1441.491577 639.513794 L 1428.147217 626.143433 C 1427.706787 625.677124 1427.162598 625.417969 1426.592529 625.417969 C 1426.022583 625.417969 1425.478394 625.677124 1425.037842 626.143433 L 1411.693604 639.513794 C 1411.25293 640.006104 1411.045776 640.498413 1411.045776 641.04248 C 1411.045776 642.182617 1411.900879 643.089478 1413.066895 643.089478 C 1413.610962 643.089478 1414.155151 642.882202 1414.517822 642.519531 L 1418.223267 638.917847 L 1426.074341 630.185669 L 1424.75293 629.719238 L 1424.493774 636.093506 L 1424.493774 661.927124 C 1424.493774 663.144897 1425.374756 664 1426.592529 664 Z"/>
        </g>
        <g id="Ultralight-S">
            <path id="path15" fill="none" stroke="#000000" stroke-width="0.5" d="M 585.544312 695.243164 C 595.484497 691.644897 600.955261 682.760986 596.343384 670.068237 L 594.519897 665.064453 C 592.198975 658.674438 588.484009 656.18811 583.7995 657.838257 C 582.605469 656.152832 580.61322 655.473999 578.398315 656.277466 C 577.52417 656.581543 576.696106 657.105591 575.905945 657.743652 C 574.733948 656.0448 572.69043 655.358154 570.464905 656.164185 C 569.680115 656.462891 568.86261 656.943726 568.115784 657.535767 L 564.385315 647.286377 C 563.370544 644.44812 560.806335 643.452881 558.508972 644.282837 C 556.102905 645.186157 554.8302 647.543701 555.839539 650.381836 L 565.432251 676.675659 C 565.470337 676.827637 565.467651 676.977051 565.315552 677.017578 C 565.20166 677.055664 565.054871 677.017578 564.943542 676.868286 L 558.490723 669.58667 C 556.881226 667.83313 555.038452 667.404419 553.407654 667.949829 C 551.160828 668.763916 549.828735 671.002686 550.756836 673.452881 C 550.990173 674.049561 551.391479 674.762939 551.828186 675.321533 L 562.623047 688.41333 C 568.793396 695.970581 576.810852 698.434814 585.544312 695.243164 Z M 585.019043 693.798218 C 577.086792 696.68396 569.474548 694.233398 563.849426 687.37085 L 553.125305 674.249023 C 552.750549 673.801025 552.489868 673.390869 552.267151 672.793457 C 551.783752 671.457275 552.479248 669.974365 553.970093 669.452881 C 555.056274 669.040161 556.235229 669.488281 557.30542 670.6698 L 564.012817 678.157471 C 564.666138 678.886719 565.379517 679.036133 566.158203 678.762085 C 567.02356 678.447388 567.552979 677.614746 567.164978 676.599976 L 557.399292 649.794678 C 556.73645 647.955566 557.336609 646.328613 559.036926 645.736572 C 560.699158 645.109009 562.149475 645.989258 562.80957 647.830933 L 569.64093 666.560791 C 569.844238 667.094727 570.250122 667.480103 570.784119 667.274048 C 571.353455 667.070801 571.398682 666.531494 571.192688 665.997559 L 568.630432 658.967407 C 569.293152 658.410645 570.105347 657.889282 570.816833 657.666504 C 572.742493 656.963013 574.336792 657.777832 575.113586 659.956299 L 576.983032 665.062622 C 577.259705 665.843994 577.698303 665.981934 578.126221 665.813965 C 578.518799 665.681274 578.811523 665.250732 578.53479 664.502075 L 576.563904 659.078003 C 577.223999 658.523926 578.038818 658.005127 578.744934 657.7771 C 580.673218 657.073608 582.234924 657.888428 583.044373 660.066895 L 584.327759 663.602417 C 584.601807 664.351196 585.04303 664.521851 585.473633 664.35376 C 585.863586 664.221191 586.153625 663.787964 585.879517 663.04187 L 584.494629 659.256592 C 588.044617 657.96106 590.955811 660.151978 592.973511 665.642944 L 594.762329 670.596802 C 599.00824 682.265015 594.206665 690.467896 585.019043 693.798218 Z"/>
            <path id="path16" fill="none" stroke="#000000" stroke-width="0.5" d="M 538.0802 660 C 538.369812 660 538.595703 659.775757 538.595703 659.507568 L 538.595703 632.16687 L 538.536804 628.091187 L 538.367493 628.184326 L 542.408203 632.299561 L 550.232788 640.117798 C 550.298157 640.183105 550.460266 640.23877 550.622498 640.23877 C 550.887512 640.23877 551.111816 640.032593 551.111816 639.72644 C 551.111816 639.564331 551.077515 639.44812 550.9646 639.353394 L 538.454956 626.927734 C 538.34198 626.81311 538.243958 626.775635 538.0802 626.775635 C 537.937805 626.775635 537.81842 626.81311 537.705444 626.927734 L 525.217224 639.353394 C 525.104309 639.44812 525.048645 639.564331 525.048645 639.72644 C 525.048645 640.032593 525.272949 640.23877 525.559326 640.23877 C 525.700134 640.23877 525.862244 640.183105 525.948975 640.117798 L 533.752197 632.299561 L 537.79126 628.184326 L 537.623596 628.091187 L 537.586121 632.16687 L 537.586121 659.507568 C 537.586121 659.775757 537.790588 660 538.0802 660 Z"/>
        </g>
    </g>
</svg>
